# xmcd CD database file
#
# Track frame offsets:
#	150
#	23807
#	55392
#	72835
#	90867
#	109432
#	134712
#	148287
#	173232
#	197707
#	220020
#	235180
#	253360
#	274127
#
# Disc length: 3825 seconds
#
# Revision: 0
# Processed by: cddbd v1.5.1PL0 Copyright (c) Steve Scherf et al.
# Submitted via: CDex 1.51
#
DISCID=db0eef0e
DTITLE=Chet Baker - Chet Baker and Crew
DYEAR=1956
DGENRE=Jazz
TTITLE0=To Mickey's Memory
TTITLE1=Slightly Above Moderate
TTITLE2=Halema
TTITLE3=Revelation
TTITLE4=Something For Liza
TTITLE5=Lucius Lu
TTITLE6=Worryin' The Life Out Of Me
TTITLE7=Medium Rock
TTITLE8=To Mickey's Memory (Alt. Take)
TTITLE9=Jumpin' Off A Clef
TTITLE10=Chippyin'
TTITLE11=Pawnee Junction
TTITLE12=Music To Dance By
TTITLE13=Line For Lyons
EXTD=YEAR: 1956
EXTT0=
EXTT1=
EXTT2=
EXTT3=
EXTT4=
EXTT5=
EXTT6=
EXTT7=
EXTT8=
EXTT9=
EXTT10=
EXTT11=
EXTT12=
EXTT13=
PLAYORDER=
